<?xml version="1.0" standalone="no"?><svg xmlns="http://www.w3.org/2000/svg" viewBox="0 0 1440 320"><path fill="#000000" fill-opacity="1" d="M0,192L30,192C60,192,120,192,180,170.7C240,149,300,107,360,128C420,149,480,235,540,256C600,277,660,235,720,186.7C780,139,840,85,900,53.3C960,21,1020,11,1080,32C1140,53,1200,107,1260,117.3C1320,128,1380,96,1410,80L1440,64L1440,0L1410,0C1380,0,1320,0,1260,0C1200,0,1140,0,1080,0C1020,0,960,0,900,0C840,0,780,0,720,0C660,0,600,0,540,0C480,0,420,0,360,0C300,0,240,0,180,0C120,0,60,0,30,0L0,0Z"></path></svg>